<svg width="18" height="18" viewBox="0 0 18 18" fill="none" xmlns="http://www.w3.org/2000/svg">
<rect width="18" height="18" fill="#E5E5E5"/>
<g id="Web design" clip-path="url(#clip0_0_1)">
<rect width="1440" height="4527" transform="translate(-246 -3626)" fill="#111827"/>
<g id="Blur footer 2" opacity="0.35" filter="url(#filter0_f_0_1)">
<g id="Ellipse 24" filter="url(#filter1_f_0_1)">
<ellipse cx="72.5" cy="327.5" rx="146.5" ry="180.5" fill="#AF51C5"/>
<ellipse cx="72.5" cy="327.5" rx="146.5" ry="180.5" fill="url(#paint0_linear_0_1)"/>
</g>
</g>
<g id="Blur footer 3" opacity="0.35" filter="url(#filter2_f_0_1)">
<g id="Ellipse 24_2" filter="url(#filter3_f_0_1)">
<ellipse cx="72.5" cy="327.5" rx="146.5" ry="180.5" fill="#AF51C5"/>
<ellipse cx="72.5" cy="327.5" rx="146.5" ry="180.5" fill="url(#paint1_linear_0_1)"/>
</g>
</g>
<g id="Blur" opacity="0.5" filter="url(#filter4_f_0_1)">
<g id="Ellipse 23" filter="url(#filter5_f_0_1)">
<ellipse cx="265.958" cy="-249" rx="52.1173" ry="71" fill="#2563EB"/>
</g>
<g id="Ellipse 21" filter="url(#filter6_f_0_1)">
<ellipse cx="266.327" cy="-150.868" rx="125.673" ry="168.696" fill="#5141DA"/>
</g>
<g id="Ellipse 25" filter="url(#filter7_f_0_1)">
<ellipse cx="-110.975" cy="-112.167" rx="125.673" ry="168.696" fill="#D946EF" fill-opacity="0.43"/>
</g>
<g id="Ellipse 22" filter="url(#filter8_f_0_1)">
<ellipse cx="-8.30481" cy="-215.865" rx="48.421" ry="64.9974" fill="#D946EF"/>
</g>
</g>
<g id="Blur_2" opacity="0.5">
</g>
<g id="section 5">
<g id="Content">
<g id="Sunny khan">
<g id="Rectangle 54" filter="url(#filter10_d_0_1)">
<rect x="-111" y="-213" width="270" height="266" rx="34" fill="url(#paint2_linear_0_1)" fill-opacity="0.2" shape-rendering="crispEdges"/>
<rect x="-110.5" y="-212.5" width="269" height="265" rx="33.5" stroke="url(#paint3_linear_0_1)" shape-rendering="crispEdges"/>
</g>
<g id="Icon">
<g id="linkedin 1" clip-path="url(#clip1_0_1)">
<g id="Group">
<path id="Vector" d="M0 9C0 4.02938 4.02938 0 9 0C13.9706 0 18 4.02938 18 9C18 13.9706 13.9706 18 9 18C4.02938 18 0 13.9706 0 9Z" fill="#0077B5"/>
<path id="Vector_2" fill-rule="evenodd" clip-rule="evenodd" d="M6.49445 5.55862C6.49445 6.147 6.05158 6.61762 5.3402 6.61762H5.32745C4.6427 6.61762 4.19983 6.147 4.19983 5.55862C4.19983 4.9575 4.6562 4.5 5.3537 4.5C6.0512 4.5 6.48133 4.9575 6.49445 5.55862ZM6.3602 7.45425V13.5825H4.3202V7.45425H6.3602ZM13.7155 13.5825V10.0688C13.7155 8.18625 12.7093 7.31025 11.3672 7.31025C10.2846 7.31025 9.7997 7.905 9.52895 8.32238V7.45425H7.48895C7.51595 8.0295 7.48895 13.5825 7.48895 13.5825H9.52895V10.1599C9.52895 9.97688 9.54208 9.79425 9.59608 9.663C9.74345 9.297 10.0791 8.91825 10.6423 8.91825C11.3811 8.91825 11.6762 9.48037 11.6762 10.3039V13.5825H13.7155Z" fill="white"/>
</g>
</g>
</g>
</g>
</g>
</g>
</g>
<defs>
<filter id="filter0_f_0_1" x="-424" y="-208" width="1864" height="1105" filterUnits="userSpaceOnUse" color-interpolation-filters="sRGB">
<feFlood flood-opacity="0" result="BackgroundImageFix"/>
<feBlend mode="normal" in="SourceGraphic" in2="BackgroundImageFix" result="shape"/>
<feGaussianBlur stdDeviation="175" result="effect1_foregroundBlur_0_1"/>
</filter>
<filter id="filter1_f_0_1" x="-274" y="-53" width="693" height="761" filterUnits="userSpaceOnUse" color-interpolation-filters="sRGB">
<feFlood flood-opacity="0" result="BackgroundImageFix"/>
<feBlend mode="normal" in="SourceGraphic" in2="BackgroundImageFix" result="shape"/>
<feGaussianBlur stdDeviation="100" result="effect1_foregroundBlur_0_1"/>
</filter>
<filter id="filter2_f_0_1" x="-424" y="-208" width="1864" height="1105" filterUnits="userSpaceOnUse" color-interpolation-filters="sRGB">
<feFlood flood-opacity="0" result="BackgroundImageFix"/>
<feBlend mode="normal" in="SourceGraphic" in2="BackgroundImageFix" result="shape"/>
<feGaussianBlur stdDeviation="175" result="effect1_foregroundBlur_0_1"/>
</filter>
<filter id="filter3_f_0_1" x="-274" y="-53" width="693" height="761" filterUnits="userSpaceOnUse" color-interpolation-filters="sRGB">
<feFlood flood-opacity="0" result="BackgroundImageFix"/>
<feBlend mode="normal" in="SourceGraphic" in2="BackgroundImageFix" result="shape"/>
<feGaussianBlur stdDeviation="100" result="effect1_foregroundBlur_0_1"/>
</filter>
<filter id="filter4_f_0_1" x="-1122" y="-690.402" width="1864" height="1096.93" filterUnits="userSpaceOnUse" color-interpolation-filters="sRGB">
<feFlood flood-opacity="0" result="BackgroundImageFix"/>
<feBlend mode="normal" in="SourceGraphic" in2="BackgroundImageFix" result="shape"/>
<feGaussianBlur stdDeviation="175" result="effect1_foregroundBlur_0_1"/>
</filter>
<filter id="filter5_f_0_1" x="13.8411" y="-520" width="504.235" height="542" filterUnits="userSpaceOnUse" color-interpolation-filters="sRGB">
<feFlood flood-opacity="0" result="BackgroundImageFix"/>
<feBlend mode="normal" in="SourceGraphic" in2="BackgroundImageFix" result="shape"/>
<feGaussianBlur stdDeviation="100" result="effect1_foregroundBlur_0_1"/>
</filter>
<filter id="filter6_f_0_1" x="-59.3456" y="-519.563" width="651.346" height="737.391" filterUnits="userSpaceOnUse" color-interpolation-filters="sRGB">
<feFlood flood-opacity="0" result="BackgroundImageFix"/>
<feBlend mode="normal" in="SourceGraphic" in2="BackgroundImageFix" result="shape"/>
<feGaussianBlur stdDeviation="100" result="effect1_foregroundBlur_0_1"/>
</filter>
<filter id="filter7_f_0_1" x="-436.648" y="-480.863" width="651.346" height="737.391" filterUnits="userSpaceOnUse" color-interpolation-filters="sRGB">
<feFlood flood-opacity="0" result="BackgroundImageFix"/>
<feBlend mode="normal" in="SourceGraphic" in2="BackgroundImageFix" result="shape"/>
<feGaussianBlur stdDeviation="100" result="effect1_foregroundBlur_0_1"/>
</filter>
<filter id="filter8_f_0_1" x="-256.726" y="-480.863" width="496.842" height="529.995" filterUnits="userSpaceOnUse" color-interpolation-filters="sRGB">
<feFlood flood-opacity="0" result="BackgroundImageFix"/>
<feBlend mode="normal" in="SourceGraphic" in2="BackgroundImageFix" result="shape"/>
<feGaussianBlur stdDeviation="100" result="effect1_foregroundBlur_0_1"/>
</filter>
<filter id="filter10_d_0_1" x="-129" y="-213" width="306" height="306" filterUnits="userSpaceOnUse" color-interpolation-filters="sRGB">
<feFlood flood-opacity="0" result="BackgroundImageFix"/>
<feColorMatrix in="SourceAlpha" type="matrix" values="0 0 0 0 0 0 0 0 0 0 0 0 0 0 0 0 0 0 127 0" result="hardAlpha"/>
<feOffset dy="22"/>
<feGaussianBlur stdDeviation="9"/>
<feComposite in2="hardAlpha" operator="out"/>
<feColorMatrix type="matrix" values="0 0 0 0 0 0 0 0 0 0 0 0 0 0 0 0 0 0 0.05 0"/>
<feBlend mode="normal" in2="BackgroundImageFix" result="effect1_dropShadow_0_1"/>
<feBlend mode="normal" in="SourceGraphic" in2="effect1_dropShadow_0_1" result="shape"/>
</filter>
<linearGradient id="paint0_linear_0_1" x1="21.5432" y1="-9.95645" x2="224.341" y2="690.203" gradientUnits="userSpaceOnUse">
<stop stop-color="#2F79CB"/>
<stop offset="1" stop-color="#AF51C5"/>
</linearGradient>
<linearGradient id="paint1_linear_0_1" x1="21.5432" y1="-9.95645" x2="224.341" y2="690.203" gradientUnits="userSpaceOnUse">
<stop stop-color="#2F79CB"/>
<stop offset="1" stop-color="#AF51C5"/>
</linearGradient>
<linearGradient id="paint2_linear_0_1" x1="194.217" y1="-80" x2="-128.704" y2="-69.2448" gradientUnits="userSpaceOnUse">
<stop stop-color="#FEFEFF" stop-opacity="0.16"/>
<stop offset="1" stop-color="white" stop-opacity="0.09"/>
</linearGradient>
<linearGradient id="paint3_linear_0_1" x1="-123.951" y1="-195.162" x2="186.544" y2="-155.782" gradientUnits="userSpaceOnUse">
<stop stop-color="white" stop-opacity="0.08"/>
<stop offset="1" stop-color="white" stop-opacity="0.07"/>
</linearGradient>
<clipPath id="clip0_0_1">
<rect width="1440" height="4527" fill="white" transform="translate(-246 -3626)"/>
</clipPath>
<clipPath id="clip1_0_1">
<rect width="18" height="18" fill="white"/>
</clipPath>
</defs>
</svg>
