<svg width="18" height="18" viewBox="0 0 18 18" fill="none" xmlns="http://www.w3.org/2000/svg">
<rect width="18" height="18" fill="#E5E5E5"/>
<g id="Web design" clip-path="url(#clip0_0_1)">
<rect width="1440" height="4527" transform="translate(-276 -3626)" fill="#111827"/>
<g id="Blur footer 2" opacity="0.35" filter="url(#filter0_f_0_1)">
<g id="Ellipse 24" filter="url(#filter1_f_0_1)">
<ellipse cx="42.5" cy="327.5" rx="146.5" ry="180.5" fill="#AF51C5"/>
<ellipse cx="42.5" cy="327.5" rx="146.5" ry="180.5" fill="url(#paint0_linear_0_1)"/>
</g>
</g>
<g id="Blur footer 3" opacity="0.35" filter="url(#filter2_f_0_1)">
<g id="Ellipse 24_2" filter="url(#filter3_f_0_1)">
<ellipse cx="42.5" cy="327.5" rx="146.5" ry="180.5" fill="#AF51C5"/>
<ellipse cx="42.5" cy="327.5" rx="146.5" ry="180.5" fill="url(#paint1_linear_0_1)"/>
</g>
</g>
<g id="Blur" opacity="0.5" filter="url(#filter4_f_0_1)">
<g id="Ellipse 23" filter="url(#filter5_f_0_1)">
<ellipse cx="235.958" cy="-249" rx="52.1173" ry="71" fill="#2563EB"/>
</g>
<g id="Ellipse 21" filter="url(#filter6_f_0_1)">
<ellipse cx="236.327" cy="-150.868" rx="125.673" ry="168.696" fill="#5141DA"/>
</g>
<g id="Ellipse 25" filter="url(#filter7_f_0_1)">
<ellipse cx="-140.975" cy="-112.167" rx="125.673" ry="168.696" fill="#D946EF" fill-opacity="0.43"/>
</g>
<g id="Ellipse 22" filter="url(#filter8_f_0_1)">
<ellipse cx="-38.3048" cy="-215.865" rx="48.421" ry="64.9974" fill="#D946EF"/>
</g>
</g>
<g id="Blur_2" opacity="0.5">
</g>
<g id="section 5">
<g id="Content">
<g id="Sunny khan">
<g id="Rectangle 54" filter="url(#filter10_d_0_1)">
<rect x="-141" y="-213" width="270" height="266" rx="34" fill="url(#paint2_linear_0_1)" fill-opacity="0.2" shape-rendering="crispEdges"/>
<rect x="-140.5" y="-212.5" width="269" height="265" rx="33.5" stroke="url(#paint3_linear_0_1)" shape-rendering="crispEdges"/>
</g>
<g id="Icon">
<g id="twitter 1" clip-path="url(#clip1_0_1)">
<g id="Group">
<path id="Vector" d="M0 9C0 4.02938 4.02938 0 9 0C13.9706 0 18 4.02938 18 9C18 13.9706 13.9706 18 9 18C4.02938 18 0 13.9706 0 9Z" fill="#3FA4F1"/>
<path id="Vector_2" d="M8.73037 7.31546L8.74912 7.62671L8.4345 7.58846C7.28887 7.44221 6.288 6.94646 5.43825 6.11396L5.02237 5.70109L4.9155 6.00596C4.689 6.68621 4.83375 7.40434 5.3055 7.88734C5.5575 8.15434 5.50087 8.19221 5.06662 8.03359C4.9155 7.98259 4.78312 7.94434 4.77037 7.96346C4.7265 8.00809 4.87763 8.58634 4.99725 8.81509C5.16113 9.13309 5.4945 9.44434 5.85975 9.62884L6.16837 9.77509L5.80312 9.78109C5.45063 9.78109 5.43787 9.78746 5.47575 9.92096C5.60175 10.3342 6.099 10.7726 6.65325 10.9635L7.04325 11.097L6.7035 11.3002C6.18922 11.5957 5.60899 11.7574 5.016 11.7705C4.73288 11.7768 4.5 11.8023 4.5 11.8215C4.5 11.8852 5.268 12.2407 5.715 12.3806C7.056 12.7938 8.64862 12.6157 9.84487 11.9103C10.6946 11.4082 11.5444 10.4103 11.9411 9.44434C12.1549 8.92946 12.369 7.98896 12.369 7.53784C12.369 7.24534 12.3877 7.20709 12.7402 6.85759C12.9484 6.65434 13.1434 6.43196 13.1812 6.36821C13.2442 6.24746 13.2379 6.24746 12.9169 6.35546C12.3817 6.54634 12.306 6.52084 12.5707 6.23471C12.7657 6.03146 12.9986 5.66284 12.9986 5.55484C12.9986 5.53609 12.9041 5.56759 12.7972 5.62459C12.684 5.68834 12.432 5.78359 12.2434 5.84096L11.9032 5.94896L11.5946 5.73896C11.4247 5.62459 11.1859 5.49746 11.0599 5.45959C10.7385 5.37034 10.2476 5.38309 9.95812 5.48509C9.171 5.77084 8.67375 6.50809 8.73037 7.31509V7.31546Z" fill="white"/>
</g>
</g>
</g>
</g>
</g>
</g>
</g>
<defs>
<filter id="filter0_f_0_1" x="-454" y="-208" width="1864" height="1105" filterUnits="userSpaceOnUse" color-interpolation-filters="sRGB">
<feFlood flood-opacity="0" result="BackgroundImageFix"/>
<feBlend mode="normal" in="SourceGraphic" in2="BackgroundImageFix" result="shape"/>
<feGaussianBlur stdDeviation="175" result="effect1_foregroundBlur_0_1"/>
</filter>
<filter id="filter1_f_0_1" x="-304" y="-53" width="693" height="761" filterUnits="userSpaceOnUse" color-interpolation-filters="sRGB">
<feFlood flood-opacity="0" result="BackgroundImageFix"/>
<feBlend mode="normal" in="SourceGraphic" in2="BackgroundImageFix" result="shape"/>
<feGaussianBlur stdDeviation="100" result="effect1_foregroundBlur_0_1"/>
</filter>
<filter id="filter2_f_0_1" x="-454" y="-208" width="1864" height="1105" filterUnits="userSpaceOnUse" color-interpolation-filters="sRGB">
<feFlood flood-opacity="0" result="BackgroundImageFix"/>
<feBlend mode="normal" in="SourceGraphic" in2="BackgroundImageFix" result="shape"/>
<feGaussianBlur stdDeviation="175" result="effect1_foregroundBlur_0_1"/>
</filter>
<filter id="filter3_f_0_1" x="-304" y="-53" width="693" height="761" filterUnits="userSpaceOnUse" color-interpolation-filters="sRGB">
<feFlood flood-opacity="0" result="BackgroundImageFix"/>
<feBlend mode="normal" in="SourceGraphic" in2="BackgroundImageFix" result="shape"/>
<feGaussianBlur stdDeviation="100" result="effect1_foregroundBlur_0_1"/>
</filter>
<filter id="filter4_f_0_1" x="-1152" y="-690.402" width="1864" height="1096.93" filterUnits="userSpaceOnUse" color-interpolation-filters="sRGB">
<feFlood flood-opacity="0" result="BackgroundImageFix"/>
<feBlend mode="normal" in="SourceGraphic" in2="BackgroundImageFix" result="shape"/>
<feGaussianBlur stdDeviation="175" result="effect1_foregroundBlur_0_1"/>
</filter>
<filter id="filter5_f_0_1" x="-16.1589" y="-520" width="504.235" height="542" filterUnits="userSpaceOnUse" color-interpolation-filters="sRGB">
<feFlood flood-opacity="0" result="BackgroundImageFix"/>
<feBlend mode="normal" in="SourceGraphic" in2="BackgroundImageFix" result="shape"/>
<feGaussianBlur stdDeviation="100" result="effect1_foregroundBlur_0_1"/>
</filter>
<filter id="filter6_f_0_1" x="-89.3456" y="-519.563" width="651.346" height="737.391" filterUnits="userSpaceOnUse" color-interpolation-filters="sRGB">
<feFlood flood-opacity="0" result="BackgroundImageFix"/>
<feBlend mode="normal" in="SourceGraphic" in2="BackgroundImageFix" result="shape"/>
<feGaussianBlur stdDeviation="100" result="effect1_foregroundBlur_0_1"/>
</filter>
<filter id="filter7_f_0_1" x="-466.648" y="-480.863" width="651.346" height="737.391" filterUnits="userSpaceOnUse" color-interpolation-filters="sRGB">
<feFlood flood-opacity="0" result="BackgroundImageFix"/>
<feBlend mode="normal" in="SourceGraphic" in2="BackgroundImageFix" result="shape"/>
<feGaussianBlur stdDeviation="100" result="effect1_foregroundBlur_0_1"/>
</filter>
<filter id="filter8_f_0_1" x="-286.726" y="-480.863" width="496.842" height="529.995" filterUnits="userSpaceOnUse" color-interpolation-filters="sRGB">
<feFlood flood-opacity="0" result="BackgroundImageFix"/>
<feBlend mode="normal" in="SourceGraphic" in2="BackgroundImageFix" result="shape"/>
<feGaussianBlur stdDeviation="100" result="effect1_foregroundBlur_0_1"/>
</filter>
<filter id="filter10_d_0_1" x="-159" y="-213" width="306" height="306" filterUnits="userSpaceOnUse" color-interpolation-filters="sRGB">
<feFlood flood-opacity="0" result="BackgroundImageFix"/>
<feColorMatrix in="SourceAlpha" type="matrix" values="0 0 0 0 0 0 0 0 0 0 0 0 0 0 0 0 0 0 127 0" result="hardAlpha"/>
<feOffset dy="22"/>
<feGaussianBlur stdDeviation="9"/>
<feComposite in2="hardAlpha" operator="out"/>
<feColorMatrix type="matrix" values="0 0 0 0 0 0 0 0 0 0 0 0 0 0 0 0 0 0 0.05 0"/>
<feBlend mode="normal" in2="BackgroundImageFix" result="effect1_dropShadow_0_1"/>
<feBlend mode="normal" in="SourceGraphic" in2="effect1_dropShadow_0_1" result="shape"/>
</filter>
<linearGradient id="paint0_linear_0_1" x1="-8.45677" y1="-9.95645" x2="194.341" y2="690.203" gradientUnits="userSpaceOnUse">
<stop stop-color="#2F79CB"/>
<stop offset="1" stop-color="#AF51C5"/>
</linearGradient>
<linearGradient id="paint1_linear_0_1" x1="-8.45677" y1="-9.95645" x2="194.341" y2="690.203" gradientUnits="userSpaceOnUse">
<stop stop-color="#2F79CB"/>
<stop offset="1" stop-color="#AF51C5"/>
</linearGradient>
<linearGradient id="paint2_linear_0_1" x1="164.217" y1="-80" x2="-158.704" y2="-69.2448" gradientUnits="userSpaceOnUse">
<stop stop-color="#FEFEFF" stop-opacity="0.16"/>
<stop offset="1" stop-color="white" stop-opacity="0.09"/>
</linearGradient>
<linearGradient id="paint3_linear_0_1" x1="-153.951" y1="-195.162" x2="156.544" y2="-155.782" gradientUnits="userSpaceOnUse">
<stop stop-color="white" stop-opacity="0.08"/>
<stop offset="1" stop-color="white" stop-opacity="0.07"/>
</linearGradient>
<clipPath id="clip0_0_1">
<rect width="1440" height="4527" fill="white" transform="translate(-276 -3626)"/>
</clipPath>
<clipPath id="clip1_0_1">
<rect width="18" height="18" fill="white"/>
</clipPath>
</defs>
</svg>
