<svg width="549" height="135" viewBox="0 0 549 135" fill="none" xmlns="http://www.w3.org/2000/svg">
<g filter="url(#filter0_d_1_497)">
<path d="M19.718 42L4.87 1.4H12.816L24.3 34.402L35.842 1.4H43.672L28.824 42H19.718ZM53.4867 8.766C52.1334 8.766 51.012 8.36 50.1227 7.548C49.272 6.736 48.8467 5.71133 48.8467 4.474C48.8467 3.23667 49.272 2.23133 50.1227 1.458C51.012 0.645998 52.1334 0.239998 53.4867 0.239998C54.84 0.239998 55.942 0.645998 56.7927 1.458C57.682 2.23133 58.1267 3.23667 58.1267 4.474C58.1267 5.71133 57.682 6.736 56.7927 7.548C55.942 8.36 54.84 8.766 53.4867 8.766ZM49.7747 42V13.232H57.1987V42H49.7747ZM66.1076 42V13.232H72.7196L73.4156 18.626C74.4596 16.77 75.8709 15.3007 77.6496 14.218C79.4669 13.0967 81.5936 12.536 84.0296 12.536V20.366H81.9416C80.3176 20.366 78.8676 20.6173 77.5916 21.12C76.3156 21.6227 75.3102 22.4927 74.5756 23.73C73.8796 24.9673 73.5316 26.688 73.5316 28.892V42H66.1076ZM103.082 42C100.066 42 97.649 41.2653 95.8317 39.796C94.0143 38.3267 93.1057 35.7167 93.1057 31.966V19.438H88.1757V13.232H93.1057L93.9757 5.518H100.53V13.232H108.302V19.438H100.53V32.024C100.53 33.416 100.82 34.3827 101.4 34.924C102.018 35.4267 103.062 35.678 104.532 35.678H108.128V42H103.082ZM126.624 42.696C123.028 42.696 120.244 41.5747 118.272 39.332C116.338 37.0893 115.372 33.8027 115.372 29.472V13.232H122.738V28.776C122.738 31.2507 123.24 33.1453 124.246 34.46C125.251 35.7747 126.836 36.432 129.002 36.432C131.051 36.432 132.733 35.6973 134.048 34.228C135.401 32.7587 136.078 30.7093 136.078 28.08V13.232H143.502V42H136.948L136.368 37.128C135.478 38.8293 134.183 40.1827 132.482 41.188C130.819 42.1933 128.866 42.696 126.624 42.696ZM162.201 42.696C159.726 42.696 157.696 42.3093 156.111 41.536C154.526 40.724 153.346 39.6607 152.573 38.346C151.8 37.0313 151.413 35.5813 151.413 33.996C151.413 31.328 152.457 29.1627 154.545 27.5C156.633 25.8373 159.765 25.006 163.941 25.006H171.249V24.31C171.249 22.338 170.688 20.888 169.567 19.96C168.446 19.032 167.054 18.568 165.391 18.568C163.883 18.568 162.568 18.9353 161.447 19.67C160.326 20.366 159.63 21.41 159.359 22.802H152.109C152.302 20.714 152.998 18.8967 154.197 17.35C155.434 15.8033 157.02 14.624 158.953 13.812C160.886 12.9613 163.052 12.536 165.449 12.536C169.548 12.536 172.776 13.5607 175.135 15.61C177.494 17.6593 178.673 20.5593 178.673 24.31V42H172.351L171.655 37.36C170.804 38.9067 169.606 40.1827 168.059 41.188C166.551 42.1933 164.598 42.696 162.201 42.696ZM163.883 36.896C166.01 36.896 167.653 36.2 168.813 34.808C170.012 33.416 170.766 31.6953 171.075 29.646H164.753C162.781 29.646 161.37 30.0133 160.519 30.748C159.668 31.444 159.243 32.314 159.243 33.358C159.243 34.4793 159.668 35.3493 160.519 35.968C161.37 36.5867 162.491 36.896 163.883 36.896ZM186.918 42V0.239998H194.342V42H186.918ZM218.242 42V1.4H233.148C236.396 1.4 239.064 1.96066 241.152 3.082C243.278 4.16467 244.864 5.65333 245.908 7.548C246.952 9.404 247.474 11.4727 247.474 13.754C247.474 16.2287 246.816 18.4907 245.502 20.54C244.226 22.5893 242.215 24.078 239.47 25.006L247.88 42H239.354L231.814 25.992H225.666V42H218.242ZM225.666 20.54H232.684C235.158 20.54 236.976 19.9407 238.136 18.742C239.296 17.5433 239.876 15.958 239.876 13.986C239.876 12.0527 239.296 10.506 238.136 9.346C237.014 8.186 235.178 7.606 232.626 7.606H225.666V20.54ZM267.586 42.696C264.686 42.696 262.115 42.0773 259.872 40.84C257.63 39.6027 255.87 37.8627 254.594 35.62C253.318 33.3773 252.68 30.7867 252.68 27.848C252.68 24.8707 253.299 22.222 254.536 19.902C255.812 17.582 257.552 15.784 259.756 14.508C261.999 13.1933 264.628 12.536 267.644 12.536C270.467 12.536 272.961 13.1547 275.126 14.392C277.292 15.6293 278.974 17.3307 280.172 19.496C281.41 21.6227 282.028 24.0007 282.028 26.63C282.028 27.0553 282.009 27.5 281.97 27.964C281.97 28.428 281.951 28.9113 281.912 29.414H260.046C260.201 31.6567 260.974 33.416 262.366 34.692C263.797 35.968 265.518 36.606 267.528 36.606C269.036 36.606 270.293 36.2773 271.298 35.62C272.342 34.924 273.116 34.0347 273.618 32.952H281.158C280.617 34.7693 279.708 36.432 278.432 37.94C277.195 39.4093 275.648 40.5693 273.792 41.42C271.975 42.2707 269.906 42.696 267.586 42.696ZM267.644 18.568C265.827 18.568 264.222 19.09 262.83 20.134C261.438 21.1393 260.549 22.686 260.162 24.774H274.488C274.372 22.8793 273.676 21.3713 272.4 20.25C271.124 19.1287 269.539 18.568 267.644 18.568ZM299.351 42.696C296.876 42.696 294.846 42.3093 293.261 41.536C291.675 40.724 290.496 39.6607 289.723 38.346C288.949 37.0313 288.563 35.5813 288.563 33.996C288.563 31.328 289.607 29.1627 291.695 27.5C293.783 25.8373 296.915 25.006 301.091 25.006H308.399V24.31C308.399 22.338 307.838 20.888 306.717 19.96C305.595 19.032 304.203 18.568 302.541 18.568C301.033 18.568 299.718 18.9353 298.597 19.67C297.475 20.366 296.779 21.41 296.509 22.802H289.259C289.452 20.714 290.148 18.8967 291.347 17.35C292.584 15.8033 294.169 14.624 296.103 13.812C298.036 12.9613 300.201 12.536 302.599 12.536C306.697 12.536 309.926 13.5607 312.285 15.61C314.643 17.6593 315.823 20.5593 315.823 24.31V42H309.501L308.805 37.36C307.954 38.9067 306.755 40.1827 305.209 41.188C303.701 42.1933 301.748 42.696 299.351 42.696ZM301.033 36.896C303.159 36.896 304.803 36.2 305.963 34.808C307.161 33.416 307.915 31.6953 308.225 29.646H301.903C299.931 29.646 298.519 30.0133 297.669 30.748C296.818 31.444 296.393 32.314 296.393 33.358C296.393 34.4793 296.818 35.3493 297.669 35.968C298.519 36.5867 299.641 36.896 301.033 36.896ZM324.067 42V0.239998H331.491V42H324.067ZM344.239 8.766C342.886 8.766 341.764 8.36 340.875 7.548C340.024 6.736 339.599 5.71133 339.599 4.474C339.599 3.23667 340.024 2.23133 340.875 1.458C341.764 0.645998 342.886 0.239998 344.239 0.239998C345.592 0.239998 346.694 0.645998 347.545 1.458C348.434 2.23133 348.879 3.23667 348.879 4.474C348.879 5.71133 348.434 6.736 347.545 7.548C346.694 8.36 345.592 8.766 344.239 8.766ZM340.527 42V13.232H347.951V42H340.527ZM369.678 42C366.662 42 364.245 41.2653 362.428 39.796C360.61 38.3267 359.702 35.7167 359.702 31.966V19.438H354.772V13.232H359.702L360.572 5.518H367.126V13.232H374.898V19.438H367.126V32.024C367.126 33.416 367.416 34.3827 367.996 34.924C368.614 35.4267 369.658 35.678 371.128 35.678H374.724V42H369.678ZM386.028 54.76L392.698 40.086H390.958L379.764 13.232H387.826L395.888 33.474L404.298 13.232H412.186L393.916 54.76H386.028ZM7.944 126V85.4H24.242C28.4567 85.4 31.666 86.386 33.87 88.358C36.1127 90.2913 37.234 92.7853 37.234 95.84C37.234 98.392 36.538 100.441 35.146 101.988C33.7927 103.496 32.13 104.521 30.158 105.062C32.478 105.526 34.392 106.686 35.9 108.542C37.408 110.359 38.162 112.486 38.162 114.922C38.162 118.131 37.002 120.78 34.682 122.868C32.362 124.956 29.0753 126 24.822 126H7.944ZM15.368 102.452H23.14C25.228 102.452 26.8327 101.969 27.954 101.002C29.0753 100.035 29.636 98.6627 29.636 96.884C29.636 95.1827 29.0753 93.8487 27.954 92.882C26.8713 91.8767 25.228 91.374 23.024 91.374H15.368V102.452ZM15.368 119.968H23.662C25.866 119.968 27.5673 119.465 28.766 118.46C30.0033 117.416 30.622 115.966 30.622 114.11C30.622 112.215 29.984 110.727 28.708 109.644C27.432 108.561 25.7113 108.02 23.546 108.02H15.368V119.968ZM56.3078 126.696C52.7118 126.696 49.9278 125.575 47.9558 123.332C46.0225 121.089 45.0558 117.803 45.0558 113.472V97.232H52.4218V112.776C52.4218 115.251 52.9245 117.145 53.9298 118.46C54.9352 119.775 56.5205 120.432 58.6858 120.432C60.7352 120.432 62.4172 119.697 63.7318 118.228C65.0852 116.759 65.7618 114.709 65.7618 112.08V97.232H73.1858V126H66.6318L66.0518 121.128C65.1625 122.829 63.8672 124.183 62.1658 125.188C60.5032 126.193 58.5505 126.696 56.3078 126.696ZM93.857 126.696C91.305 126.696 89.0623 126.29 87.129 125.478C85.1956 124.627 83.649 123.467 82.489 121.998C81.329 120.529 80.633 118.827 80.401 116.894H87.883C88.115 118.015 88.7336 118.982 89.739 119.794C90.783 120.567 92.117 120.954 93.741 120.954C95.365 120.954 96.5443 120.625 97.279 119.968C98.0523 119.311 98.439 118.557 98.439 117.706C98.439 116.469 97.8976 115.637 96.815 115.212C95.7323 114.748 94.2243 114.303 92.291 113.878C91.0536 113.607 89.797 113.279 88.521 112.892C87.245 112.505 86.0656 112.022 84.983 111.442C83.939 110.823 83.0883 110.05 82.431 109.122C81.7736 108.155 81.445 106.976 81.445 105.584C81.445 103.032 82.4503 100.886 84.461 99.146C86.5103 97.406 89.3716 96.536 93.045 96.536C96.4476 96.536 99.1543 97.3287 101.165 98.914C103.214 100.499 104.432 102.684 104.819 105.468H97.801C97.3756 103.341 95.771 102.278 92.987 102.278C91.595 102.278 90.5123 102.549 89.739 103.09C89.0043 103.631 88.637 104.308 88.637 105.12C88.637 105.971 89.1976 106.647 90.319 107.15C91.4403 107.653 92.929 108.117 94.785 108.542C96.7956 109.006 98.6323 109.528 100.295 110.108C101.996 110.649 103.35 111.481 104.355 112.602C105.36 113.685 105.863 115.251 105.863 117.3C105.902 119.079 105.438 120.683 104.471 122.114C103.504 123.545 102.112 124.666 100.295 125.478C98.4776 126.29 96.3316 126.696 93.857 126.696ZM117.602 92.766C116.248 92.766 115.127 92.36 114.238 91.548C113.387 90.736 112.962 89.7113 112.962 88.474C112.962 87.2367 113.387 86.2313 114.238 85.458C115.127 84.646 116.248 84.24 117.602 84.24C118.955 84.24 120.057 84.646 120.908 85.458C121.797 86.2313 122.242 87.2367 122.242 88.474C122.242 89.7113 121.797 90.736 120.908 91.548C120.057 92.36 118.955 92.766 117.602 92.766ZM113.89 126V97.232H121.314V126H113.89ZM130.222 126V97.232H136.776L137.356 102.104C138.246 100.403 139.522 99.0493 141.184 98.044C142.886 97.0387 144.877 96.536 147.159 96.536C150.716 96.536 153.481 97.6573 155.452 99.9C157.424 102.143 158.41 105.429 158.41 109.76V126H150.986V110.456C150.986 107.981 150.484 106.087 149.479 104.772C148.473 103.457 146.907 102.8 144.781 102.8C142.693 102.8 140.972 103.535 139.619 105.004C138.304 106.473 137.646 108.523 137.646 111.152V126H130.222ZM180.648 126.696C177.748 126.696 175.176 126.077 172.934 124.84C170.691 123.603 168.932 121.863 167.656 119.62C166.38 117.377 165.742 114.787 165.742 111.848C165.742 108.871 166.36 106.222 167.598 103.902C168.874 101.582 170.614 99.784 172.818 98.508C175.06 97.1933 177.69 96.536 180.706 96.536C183.528 96.536 186.022 97.1547 188.188 98.392C190.353 99.6293 192.035 101.331 193.234 103.496C194.471 105.623 195.09 108.001 195.09 110.63C195.09 111.055 195.07 111.5 195.032 111.964C195.032 112.428 195.012 112.911 194.974 113.414H173.108C173.262 115.657 174.036 117.416 175.428 118.692C176.858 119.968 178.579 120.606 180.59 120.606C182.098 120.606 183.354 120.277 184.36 119.62C185.404 118.924 186.177 118.035 186.68 116.952H194.22C193.678 118.769 192.77 120.432 191.494 121.94C190.256 123.409 188.71 124.569 186.854 125.42C185.036 126.271 182.968 126.696 180.648 126.696ZM180.706 102.568C178.888 102.568 177.284 103.09 175.892 104.134C174.5 105.139 173.61 106.686 173.224 108.774H187.55C187.434 106.879 186.738 105.371 185.462 104.25C184.186 103.129 182.6 102.568 180.706 102.568ZM214.384 126.696C211.832 126.696 209.589 126.29 207.656 125.478C205.722 124.627 204.176 123.467 203.016 121.998C201.856 120.529 201.16 118.827 200.928 116.894H208.41C208.642 118.015 209.26 118.982 210.266 119.794C211.31 120.567 212.644 120.954 214.268 120.954C215.892 120.954 217.071 120.625 217.806 119.968C218.579 119.311 218.966 118.557 218.966 117.706C218.966 116.469 218.424 115.637 217.342 115.212C216.259 114.748 214.751 114.303 212.818 113.878C211.58 113.607 210.324 113.279 209.048 112.892C207.772 112.505 206.592 112.022 205.51 111.442C204.466 110.823 203.615 110.05 202.958 109.122C202.3 108.155 201.972 106.976 201.972 105.584C201.972 103.032 202.977 100.886 204.988 99.146C207.037 97.406 209.898 96.536 213.572 96.536C216.974 96.536 219.681 97.3287 221.692 98.914C223.741 100.499 224.959 102.684 225.346 105.468H218.328C217.902 103.341 216.298 102.278 213.514 102.278C212.122 102.278 211.039 102.549 210.266 103.09C209.531 103.631 209.164 104.308 209.164 105.12C209.164 105.971 209.724 106.647 210.846 107.15C211.967 107.653 213.456 108.117 215.312 108.542C217.322 109.006 219.159 109.528 220.822 110.108C222.523 110.649 223.876 111.481 224.882 112.602C225.887 113.685 226.39 115.251 226.39 117.3C226.428 119.079 225.964 120.683 224.998 122.114C224.031 123.545 222.639 124.666 220.822 125.478C219.004 126.29 216.858 126.696 214.384 126.696ZM246.016 126.696C243.464 126.696 241.222 126.29 239.288 125.478C237.355 124.627 235.808 123.467 234.648 121.998C233.488 120.529 232.792 118.827 232.56 116.894H240.042C240.274 118.015 240.893 118.982 241.898 119.794C242.942 120.567 244.276 120.954 245.9 120.954C247.524 120.954 248.704 120.625 249.438 119.968C250.212 119.311 250.598 118.557 250.598 117.706C250.598 116.469 250.057 115.637 248.974 115.212C247.892 114.748 246.384 114.303 244.45 113.878C243.213 113.607 241.956 113.279 240.68 112.892C239.404 112.505 238.225 112.022 237.142 111.442C236.098 110.823 235.248 110.05 234.59 109.122C233.933 108.155 233.604 106.976 233.604 105.584C233.604 103.032 234.61 100.886 236.62 99.146C238.67 97.406 241.531 96.536 245.204 96.536C248.607 96.536 251.314 97.3287 253.324 98.914C255.374 100.499 256.592 102.684 256.978 105.468H249.96C249.535 103.341 247.93 102.278 245.146 102.278C243.754 102.278 242.672 102.549 241.898 103.09C241.164 103.631 240.796 104.308 240.796 105.12C240.796 105.971 241.357 106.647 242.478 107.15C243.6 107.653 245.088 108.117 246.944 108.542C248.955 109.006 250.792 109.528 252.454 110.108C254.156 110.649 255.509 111.481 256.514 112.602C257.52 113.685 258.022 115.251 258.022 117.3C258.061 119.079 257.597 120.683 256.63 122.114C255.664 123.545 254.272 124.666 252.454 125.478C250.637 126.29 248.491 126.696 246.016 126.696ZM294.775 126.696C291.798 126.696 289.169 126.193 286.887 125.188C284.606 124.144 282.808 122.675 281.493 120.78C280.179 118.847 279.502 116.507 279.463 113.762H287.293C287.371 115.657 288.047 117.261 289.323 118.576C290.638 119.852 292.436 120.49 294.717 120.49C296.689 120.49 298.255 120.026 299.415 119.098C300.575 118.131 301.155 116.855 301.155 115.27C301.155 113.607 300.633 112.312 299.589 111.384C298.584 110.456 297.231 109.702 295.529 109.122C293.828 108.542 292.011 107.923 290.077 107.266C286.945 106.183 284.548 104.791 282.885 103.09C281.261 101.389 280.449 99.1267 280.449 96.304C280.411 93.9067 280.971 91.8573 282.131 90.156C283.33 88.416 284.954 87.082 287.003 86.154C289.053 85.1873 291.411 84.704 294.079 84.704C296.786 84.704 299.164 85.1873 301.213 86.154C303.301 87.1207 304.925 88.474 306.085 90.214C307.284 91.954 307.922 94.0227 307.999 96.42H300.053C300.015 94.9893 299.454 93.7327 298.371 92.65C297.327 91.5287 295.858 90.968 293.963 90.968C292.339 90.9293 290.967 91.3353 289.845 92.186C288.763 92.998 288.221 94.1967 288.221 95.782C288.221 97.1353 288.647 98.218 289.497 99.03C290.348 99.8033 291.508 100.461 292.977 101.002C294.447 101.543 296.129 102.123 298.023 102.742C300.034 103.438 301.871 104.25 303.533 105.178C305.196 106.106 306.53 107.343 307.535 108.89C308.541 110.398 309.043 112.351 309.043 114.748C309.043 116.875 308.502 118.847 307.419 120.664C306.337 122.481 304.732 123.951 302.605 125.072C300.479 126.155 297.869 126.696 294.775 126.696ZM330.311 126.696C327.527 126.696 325.013 126.058 322.771 124.782C320.567 123.506 318.807 121.747 317.493 119.504C316.217 117.223 315.579 114.593 315.579 111.616C315.579 108.639 316.236 106.029 317.551 103.786C318.865 101.505 320.625 99.726 322.829 98.45C325.071 97.174 327.585 96.536 330.369 96.536C333.114 96.536 335.589 97.174 337.793 98.45C340.035 99.726 341.795 101.505 343.071 103.786C344.385 106.029 345.043 108.639 345.043 111.616C345.043 114.593 344.385 117.223 343.071 119.504C341.795 121.747 340.035 123.506 337.793 124.782C335.55 126.058 333.056 126.696 330.311 126.696ZM330.311 120.258C332.244 120.258 333.926 119.543 335.357 118.112C336.787 116.643 337.503 114.477 337.503 111.616C337.503 108.755 336.787 106.609 335.357 105.178C333.926 103.709 332.263 102.974 330.369 102.974C328.397 102.974 326.695 103.709 325.265 105.178C323.873 106.609 323.177 108.755 323.177 111.616C323.177 114.477 323.873 116.643 325.265 118.112C326.695 119.543 328.377 120.258 330.311 120.258ZM352.841 126V84.24H360.265V126H352.841ZM379.798 126.696C376.202 126.696 373.418 125.575 371.446 123.332C369.513 121.089 368.546 117.803 368.546 113.472V97.232H375.912V112.776C375.912 115.251 376.415 117.145 377.42 118.46C378.426 119.775 380.011 120.432 382.176 120.432C384.226 120.432 385.908 119.697 387.222 118.228C388.576 116.759 389.252 114.709 389.252 112.08V97.232H396.676V126H390.122L389.542 121.128C388.653 122.829 387.358 124.183 385.656 125.188C383.994 126.193 382.041 126.696 379.798 126.696ZM418.275 126C415.259 126 412.843 125.265 411.025 123.796C409.208 122.327 408.299 119.717 408.299 115.966V103.438H403.369V97.232H408.299L409.169 89.518H415.723V97.232H423.495V103.438H415.723V116.024C415.723 117.416 416.013 118.383 416.593 118.924C417.212 119.427 418.256 119.678 419.725 119.678H423.321V126H418.275ZM435.032 92.766C433.678 92.766 432.557 92.36 431.668 91.548C430.817 90.736 430.392 89.7113 430.392 88.474C430.392 87.2367 430.817 86.2313 431.668 85.458C432.557 84.646 433.678 84.24 435.032 84.24C436.385 84.24 437.487 84.646 438.338 85.458C439.227 86.2313 439.672 87.2367 439.672 88.474C439.672 89.7113 439.227 90.736 438.338 91.548C437.487 92.36 436.385 92.766 435.032 92.766ZM431.32 126V97.232H438.744V126H431.32ZM461.456 126.696C458.672 126.696 456.159 126.058 453.916 124.782C451.712 123.506 449.953 121.747 448.638 119.504C447.362 117.223 446.724 114.593 446.724 111.616C446.724 108.639 447.382 106.029 448.696 103.786C450.011 101.505 451.77 99.726 453.974 98.45C456.217 97.174 458.73 96.536 461.514 96.536C464.26 96.536 466.734 97.174 468.938 98.45C471.181 99.726 472.94 101.505 474.216 103.786C475.531 106.029 476.188 108.639 476.188 111.616C476.188 114.593 475.531 117.223 474.216 119.504C472.94 121.747 471.181 123.506 468.938 124.782C466.696 126.058 464.202 126.696 461.456 126.696ZM461.456 120.258C463.39 120.258 465.072 119.543 466.502 118.112C467.933 116.643 468.648 114.477 468.648 111.616C468.648 108.755 467.933 106.609 466.502 105.178C465.072 103.709 463.409 102.974 461.514 102.974C459.542 102.974 457.841 103.709 456.41 105.178C455.018 106.609 454.322 108.755 454.322 111.616C454.322 114.477 455.018 116.643 456.41 118.112C457.841 119.543 459.523 120.258 461.456 120.258ZM483.986 126V97.232H490.54L491.12 102.104C492.01 100.403 493.286 99.0493 494.948 98.044C496.65 97.0387 498.641 96.536 500.922 96.536C504.48 96.536 507.244 97.6573 509.216 99.9C511.188 102.143 512.174 105.429 512.174 109.76V126H504.75V110.456C504.75 107.981 504.248 106.087 503.242 104.772C502.237 103.457 500.671 102.8 498.544 102.8C496.456 102.8 494.736 103.535 493.382 105.004C492.068 106.473 491.41 108.523 491.41 111.152V126H483.986ZM532.323 126.696C529.771 126.696 527.529 126.29 525.595 125.478C523.662 124.627 522.115 123.467 520.955 121.998C519.795 120.529 519.099 118.827 518.867 116.894H526.349C526.581 118.015 527.2 118.982 528.205 119.794C529.249 120.567 530.583 120.954 532.207 120.954C533.831 120.954 535.011 120.625 535.745 119.968C536.519 119.311 536.905 118.557 536.905 117.706C536.905 116.469 536.364 115.637 535.281 115.212C534.199 114.748 532.691 114.303 530.757 113.878C529.52 113.607 528.263 113.279 526.987 112.892C525.711 112.505 524.532 112.022 523.449 111.442C522.405 110.823 521.555 110.05 520.897 109.122C520.24 108.155 519.911 106.976 519.911 105.584C519.911 103.032 520.917 100.886 522.927 99.146C524.977 97.406 527.838 96.536 531.511 96.536C534.914 96.536 537.621 97.3287 539.631 98.914C541.681 100.499 542.899 102.684 543.285 105.468H536.267C535.842 103.341 534.237 102.278 531.453 102.278C530.061 102.278 528.979 102.549 528.205 103.09C527.471 103.631 527.103 104.308 527.103 105.12C527.103 105.971 527.664 106.647 528.785 107.15C529.907 107.653 531.395 108.117 533.251 108.542C535.262 109.006 537.099 109.528 538.761 110.108C540.463 110.649 541.816 111.481 542.821 112.602C543.827 113.685 544.329 115.251 544.329 117.3C544.368 119.079 543.904 120.683 542.937 122.114C541.971 123.545 540.579 124.666 538.761 125.478C536.944 126.29 534.798 126.696 532.323 126.696Z" fill="url(#paint0_linear_1_497)"/>
</g>
<defs>
<filter id="filter0_d_1_497" x="0.869995" y="0.23999" width="547.517" height="134.456" filterUnits="userSpaceOnUse" color-interpolation-filters="sRGB">
<feFlood flood-opacity="0" result="BackgroundImageFix"/>
<feColorMatrix in="SourceAlpha" type="matrix" values="0 0 0 0 0 0 0 0 0 0 0 0 0 0 0 0 0 0 127 0" result="hardAlpha"/>
<feOffset dy="4"/>
<feGaussianBlur stdDeviation="2"/>
<feColorMatrix type="matrix" values="0 0 0 0 0 0 0 0 0 0 0 0 0 0 0 0 0 0 0.07 0"/>
<feBlend mode="normal" in2="BackgroundImageFix" result="effect1_dropShadow_1_497"/>
<feBlend mode="normal" in="SourceGraphic" in2="effect1_dropShadow_1_497" result="shape"/>
</filter>
<linearGradient id="paint0_linear_1_497" x1="4" y1="81.5" x2="324.5" y2="78.5" gradientUnits="userSpaceOnUse">
<stop stop-color="#2563EB"/>
<stop offset="1" stop-color="#D946EF"/>
</linearGradient>
</defs>
</svg>
